<svg xmlns="http://www.w3.org/2000/svg" viewBox="0 0 106 54" width="106" height="54" role="img" aria-label="EMAIL"><title>EMAIL</title><rect x="10" y="10" width="92" height="40" fill="#1f6feb"/><rect x="4" y="4" width="92" height="40" fill="#e6edf3" stroke="#0d1117" stroke-width="3"/><path d="M21.97119140625 36.0V24.98486328125H25.64013671875V29.35107421875H29.1513671875V31.47607421875H25.64013671875V36.0ZM28.50390625 28.17236328125V27.1181640625H26.22119140625V24.98486328125H31.95703125V28.17236328125ZM26.22119140625 36.0V33.80029296875H28.2880859375V32.6962890625H31.95703125V36.0Z M41.1078125 36.0 34.57509765625 24.98486328125H38.47646484375L41.43154296875 29.88232421875L43.75576171875 25.89794921875V31.44287109375ZM44.2953125 36.0V24.98486328125H47.9642578125V36.0ZM34.566796875 36.0V26.005859375L37.99501953125 31.75830078125V36.0Z M58.45146484375 36.0 57.98662109375 34.79638671875H54.38408203125L55.14775390625 32.61328125H57.13994140625L54.1931640625 24.98486328125H57.77080078125L62.1619140625 36.0ZM49.86015625 36.0 53.7947265625 25.48291015625 55.4216796875 29.857421875 53.40458984375 36.0Z M63.891796875000004 36.0V33.65087890625H64.99580078125001V27.32568359375H63.891796875000004V24.98486328125H69.76875000000001V27.32568359375H68.66474609375001V33.65087890625H69.76875000000001V36.0Z M72.3951171875 36.0V24.98486328125H76.0640625V36.0ZM76.6451171875 36.0V33.80029296875H78.46298828125V32.40576171875H81.7916015625V36.0Z" fill="#0d1117" stroke="#0d1117" stroke-width="0.6" stroke-linejoin="round"/></svg>