<svg xmlns="http://www.w3.org/2000/svg" viewBox="0 0 137 54" width="137" height="54" role="img" aria-label="LINKEDIN"><title>LINKEDIN</title><rect x="10" y="10" width="123" height="40" fill="#1f2328"/><rect x="4" y="4" width="123" height="40" fill="#ffffff" stroke="#1f2328" stroke-width="3"/><path d="M21.97119140625 36.0V24.98486328125H25.64013671875V36.0ZM26.22119140625 36.0V33.80029296875H28.0390625V32.40576171875H31.36767578125V36.0Z M33.2220703125 36.0V33.65087890625H34.32607421875V27.32568359375H33.2220703125V24.98486328125H39.0990234375V27.32568359375H37.99501953125V33.65087890625H39.0990234375V36.0Z M48.39921875 36.0 41.725390625 24.98486328125H45.60185546875L52.3005859375 36.0ZM52.3005859375 34.9541015625 49.10478515625 29.69140625V24.98486328125H52.3005859375ZM41.725390625 36.0V26.03076171875L44.92119140625 31.2685546875V36.0Z M59.3263671875 34.439453125V29.08544921875L61.899609375 24.98486328125H65.71796875ZM55.09296875 36.0V24.98486328125H58.7619140625V36.0ZM61.92451171875 36.0 60.67939453125 33.43505859375 62.85419921875 30.1728515625 65.89228515625 36.0Z M67.3150390625 36.0V24.98486328125H70.983984375V29.35107421875H74.49521484375V31.47607421875H70.983984375V36.0ZM73.84775390625 28.17236328125V27.1181640625H71.5650390625V24.98486328125H77.30087890625V28.17236328125ZM71.5650390625 36.0V33.80029296875H73.63193359375V32.6962890625H77.30087890625V36.0Z M84.16064453125 36.0V33.80029296875H86.88330078125V27.1845703125H84.16064453125V24.98486328125H88.3525390625L90.560546875 27.1845703125V33.80029296875L88.3525390625 36.0ZM79.91064453125 36.0V24.98486328125H83.57958984375V36.0Z M92.92958984375 36.0V33.65087890625H94.03359375V27.32568359375H92.92958984375V24.98486328125H98.80654296875V27.32568359375H97.7025390625V33.65087890625H98.80654296875V36.0Z M108.10673828124999 36.0 101.43291015624999 24.98486328125H105.30937499999999L112.00810546874999 36.0ZM112.00810546874999 34.9541015625 108.81230468749999 29.69140625V24.98486328125H112.00810546874999ZM101.43291015624999 36.0V26.03076171875L104.62871093749999 31.2685546875V36.0Z" fill="#1f2328" stroke="#1f2328" stroke-width="0.6" stroke-linejoin="round"/></svg>